<?xml version="1.0" encoding="UTF-8" standalone="no"?>
<!-- Created with Inkscape (http://www.inkscape.org/) -->

<svg
   xmlns:dc="http://purl.org/dc/elements/1.1/"
   xmlns:cc="http://creativecommons.org/ns#"
   xmlns:rdf="http://www.w3.org/1999/02/22-rdf-syntax-ns#"
   xmlns:svg="http://www.w3.org/2000/svg"
   xmlns="http://www.w3.org/2000/svg"
   xmlns:sodipodi="http://sodipodi.sourceforge.net/DTD/sodipodi-0.dtd"
   xmlns:inkscape="http://www.inkscape.org/namespaces/inkscape"
   width="60mm"
   height="100mm"
   viewBox="0 0 212.59843 354.3307"
   id="svg2"
   version="1.1"
   inkscape:version="0.91 r13725"
   sodipodi:docname="VSH_1Tö.svg">
  <defs
     id="defs4" />
  <sodipodi:namedview
     id="base"
     pagecolor="#ffffff"
     bordercolor="#666666"
     borderopacity="1.0"
     inkscape:pageopacity="0.0"
     inkscape:pageshadow="2"
     inkscape:zoom="1.4142136"
     inkscape:cx="109.00409"
     inkscape:cy="186.44142"
     inkscape:document-units="px"
     inkscape:current-layer="layer1"
     showgrid="false"
     units="mm"
     inkscape:window-width="1680"
     inkscape:window-height="987"
     inkscape:window-x="-8"
     inkscape:window-y="-8"
     inkscape:window-maximized="1"
     showborder="true" />
  <metadata
     id="metadata7">
    <rdf:RDF>
      <cc:Work
         rdf:about="">
        <dc:format>image/svg+xml</dc:format>
        <dc:type
           rdf:resource="http://purl.org/dc/dcmitype/StillImage" />
        <dc:title></dc:title>
      </cc:Work>
    </rdf:RDF>
  </metadata>
  <g
     inkscape:groupmode="layer"
     id="layer4"
     inkscape:label="Layer 3"
     sodipodi:insensitive="true">
    <path
       inkscape:connector-curvature="0"
       style="display:inline;fill:#000000"
       d="m -0.09375,0.2812334 0,354.5781266 213.16212,0 0,-354.5781266 -213.16212,0 z m 12.964845,12.7109386 186.677745,0 0,220.888668 -186.677745,0 0,-220.888668 z m 0.208984,234.173828 185.222661,0 0,94.25 -185.222661,0 0,-94.25 z"
       id="rect4136-0-0" />
    <path
       inkscape:connector-curvature="0"
       id="path3439"
       style="font-style:normal;font-variant:normal;font-weight:normal;font-stretch:condensed;font-size:medium;line-height:125%;font-family:'Rockwell Condensed';-inkscape-font-specification:'Rockwell Condensed,  Condensed';letter-spacing:0px;word-spacing:0px;fill:#000000;fill-opacity:1;stroke:none;stroke-width:1px;stroke-linecap:butt;stroke-linejoin:miter;stroke-opacity:1"
       d="M 44.735282,218.20753 27.190094,51.267015 l -7.240872,0 0,-22.724883 29.033109,0 0,22.724883 -7.101625,0 q 8.4941,74.792345 9.120713,115.372505 l 0.278513,0 q 0.55699,-36.58457 8.842219,-115.372505 l -7.101626,0 0,-22.724883 27.640637,0 0,22.724883 -7.588992,0 -16.918572,166.940515 -11.418298,0 z" />
    <path
       inkscape:connector-curvature="0"
       id="path3441"
       style="font-style:normal;font-variant:normal;font-weight:normal;font-stretch:condensed;font-size:medium;line-height:125%;font-family:'Rockwell Condensed';-inkscape-font-specification:'Rockwell Condensed,  Condensed';letter-spacing:0px;word-spacing:0px;fill:#000000;fill-opacity:1;stroke:none;stroke-width:1px;stroke-linecap:butt;stroke-linejoin:miter;stroke-opacity:1"
       d="m 84.380979,216.70919 0,-64.67853 13.507105,0 0,17.35582 q 0,15.10831 1.845232,21.22654 1.845224,6.11825 6.421404,6.11825 3.54286,0 5.68333,-4.99448 2.21427,-4.99449 2.21427,-13.36024 0,-7.11713 -1.54998,-15.48289 -1.47619,-8.49062 -3.61666,-13.98455 Q 106.819,143.41518 98.183321,124.93561 89.252392,105.95658 86.300018,94.469275 83.347646,82.857109 83.347646,67.37422 q 0,-18.479578 4.871417,-30.216611 4.945224,-11.737026 12.621397,-11.737026 6.42141,0 11.21901,8.740338 l 0,-5.618789 13.4333,0 0,56.187903 -13.4333,0 0,-14.234266 q 0,-11.737033 -1.77142,-16.856374 -1.77142,-5.244201 -5.60952,-5.244201 -6.495209,0 -6.495209,13.859678 0,7.991169 1.919039,16.481786 1.91905,8.365757 6.71664,18.354718 l 6.93809,14.483994 q 15.72139,32.96357 15.72139,62.93045 0,19.60334 -5.68334,32.46413 -5.60949,12.86079 -14.02376,12.86079 -6.86427,0 -11.883296,-8.99007 l 0,5.86852 -13.507105,0 z" />
    <path
       inkscape:connector-curvature="0"
       id="path3443"
       style="font-style:normal;font-variant:normal;font-weight:normal;font-stretch:condensed;font-size:medium;line-height:125%;font-family:'Rockwell Condensed';-inkscape-font-specification:'Rockwell Condensed,  Condensed';letter-spacing:0px;word-spacing:0px;fill:#000000;fill-opacity:1;stroke:none;stroke-width:1px;stroke-linecap:butt;stroke-linejoin:miter;stroke-opacity:1"
       d="m 154.95834,127.93229 0,66.05201 4.94568,0 0,22.72489 -27.79333,0 0,-22.72489 8.01061,0 0,-142.717285 -8.01061,0 0,-22.724883 27.79333,0 0,22.724883 -4.94568,0 0,53.940395 14.69773,0 0,-53.940395 -5.01535,0 0,-22.724883 27.79334,0 0,22.724883 -7.94095,0 0,142.717285 7.94095,0 0,22.72489 -27.79334,0 0,-22.72489 5.01535,0 0,-66.05201 -14.69773,0 z" />
  </g>
  <g
     inkscape:groupmode="layer"
     id="layer1"
     inkscape:label="Layer 4">
    <g
       transform="scale(0.88503674,1.1298966)"
       style="font-style:normal;font-weight:normal;font-size:95.8944397px;line-height:125%;font-family:sans-serif;letter-spacing:0px;word-spacing:0px;display:inline;fill:#000000;fill-opacity:1;stroke:none;stroke-width:1px;stroke-linecap:butt;stroke-linejoin:miter;stroke-opacity:1"
       id="text4247-9">
      <path
         d="m 40.271401,292.18405 0,-10.44163 8.990104,0 0,-44.24817 -9.551985,0 0,-10.44163 23.879963,0 0,54.6898 8.521869,0 0,10.44163 -31.839951,0 z"
         style="font-style:normal;font-variant:normal;font-weight:bold;font-stretch:normal;font-family:Rockwell;-inkscape-font-specification:'Rockwell Bold'"
         id="path3394" />
      <path
         d="m 96.506374,292.18405 0,-11.00351 9.786106,0 0,-43.1244 -9.786106,0 0,15.1708 -11.190806,0 0,-26.17432 59.044382,0 0,26.17432 -11.05034,0 0,-15.1708 -10.06704,0 0,43.1244 9.7861,0 0,11.00351 -36.522296,0 z"
         style="font-style:normal;font-variant:normal;font-weight:bold;font-stretch:normal;font-family:Rockwell;-inkscape-font-specification:'Rockwell Bold'"
         id="path3396" />
      <path
         d="m 174.84202,293.21417 q -10.02022,0 -16.95009,-6.32117 -6.88305,-6.36799 -6.88305,-17.41833 0,-11.05033 6.88305,-17.3715 6.92987,-6.36799 16.95009,-6.36799 10.06705,0 16.95009,6.36799 6.88305,6.32117 6.88305,17.3715 0,10.90987 -6.83622,17.32468 -6.7894,6.41482 -16.99692,6.41482 z m -0.0468,-11.23763 q 4.02682,0 6.50846,-3.09035 2.52847,-3.09035 2.52847,-9.69246 0,-5.8061 -2.43482,-9.03692 -2.43482,-3.27764 -6.60211,-3.27764 -8.94328,0 -8.94328,12.92327 0,5.29105 2.2007,8.75599 2.24753,3.41811 6.74258,3.41811 z m 17.46515,-48.27499 q 0,2.80941 -2.01341,4.82282 -1.96659,1.96659 -4.72917,1.96659 -2.80941,0 -4.82282,-1.96659 -1.96658,-1.96659 -1.96658,-4.82282 0,-2.76258 1.96658,-4.72917 2.01341,-2.0134 4.82282,-2.0134 2.76258,0 4.72917,2.0134 2.01341,1.96659 2.01341,4.72917 z m -21.25785,0 q 0,2.80941 -2.01341,4.82282 -2.01341,1.96659 -4.77599,1.96659 -2.80941,0 -4.82282,-1.96659 -1.96658,-2.01341 -1.96658,-4.82282 0,-2.76258 1.96658,-4.72917 2.01341,-2.0134 4.82282,-2.0134 2.76258,0 4.77599,1.96658 2.01341,1.96659 2.01341,4.77599 z"
         style="font-style:normal;font-variant:normal;font-weight:bold;font-stretch:normal;font-family:Rockwell;-inkscape-font-specification:'Rockwell Bold'"
         id="path3398" />
    </g>
  </g>
</svg>
